# xmcd CD database file
#
# Track frame offsets:
#	150
#	15370
#	30055
#	46115
#	59729
#	72288
#	90033
#	118085
#	134391
#	150696
#	176335
#	200799
#
# Disc length: 2910 seconds
#
# Revision: 13
# Processed by: cddbd v1.5PL3 Copyright (c) Steve Scherf et al.
# Submitted via: CDex 1.51
#
DISCID=910b5c0c
DTITLE=The Blind Boys of Alabama - Higher Ground
DYEAR=2002
DGENRE=Gospel
TTITLE0=People Get Ready
TTITLE1=Spirit in the Dark
TTITLE2=Wade in the Water
TTITLE3=Stand By Me
TTITLE4=The Cross
TTITLE5=Many Rivers to Cross
TTITLE6=Higher Ground
TTITLE7=Freedom Road
TTITLE8=I May Not Can See
TTITLE9=You and Your Folks/23rd Psalm
TTITLE10=I Shall Not Walk Alone
TTITLE11=Precious Lord
EXTD=YEAR: 2002
EXTT0=
EXTT1=
EXTT2=
EXTT3=
EXTT4=
EXTT5=
EXTT6=
EXTT7=
EXTT8=
EXTT9=
EXTT10=
EXTT11=
PLAYORDER=
